# xmcd CD database file
#
# Track frame offsets:
#	150
#	18176
#	44088
#	93650
#	131316
#	148503
#	169200
#	191971
#	210457
#	231855
#	249882
#	262036
#	276029
#	293596
#	316380
#	336301
#
# Disc length: 4663 seconds
#
# Revision: 0
# Processed by: cddbd v1.5.2PL0 Copyright (c) Steve Scherf et al.
# Submitted via: CDex 2.04
#
DISCID=ef123510
DTITLE=Stan Getz - Milestone of a legend - 9
DYEAR=2016
DGENRE=Jazz
TTITLE0=I've grown accustomed to her face
TTITLE1=For all we know
TTITLE2=Ginza
TTITLE3=Crow's nest
TTITLE4=Liz Anne
TTITLE5=Big bear - My buddy
TTITLE6=The thrill is gone
TTITLE7=It never entered my mind
TTITLE8=Early autumn
TTITLE9=When I go, I go all the way
TTITLE10=A new town is a blue town
TTITLE11='Round midnight
TTITLE12=Born to be blue
TTITLE13=Whisper not
TTITLE14=Good-bye
TTITLE15=Nature boy
EXTD=YEAR: 2016
EXTT0=
EXTT1=
EXTT2=
EXTT3=
EXTT4=
EXTT5=
EXTT6=
EXTT7=
EXTT8=
EXTT9=
EXTT10=
EXTT11=
EXTT12=
EXTT13=
EXTT14=
EXTT15=
PLAYORDER=
